<?xml version="1.0" encoding="UTF-8"?>
<!-- The About box banner.
     Generated by data/icons/make-icons.py.
     SPDX-License-Identifier: GPL-3.0-or-later -->
<svg xmlns="http://www.w3.org/2000/svg" width="420" height="128"
     viewBox="0 0 420 128">
  <rect width="420" height="128" fill="#ffffff"/>
  <rect x="0" y="127" width="420" height="1" fill="#c0bfbc"/>

  <g transform="translate(20,16) scale(1.5)">
    <path d="M9.5 8.5a4 4 0 0 1 4-4h23l14 14v33a4 4 0 0 1-4 4h-33a4 4 0 0 1-4-4Z" fill="#ffffff" stroke="#c0bfbc" stroke-width="2.5" stroke-linejoin="round"/><path d="M36.5 4.5v10a4 4 0 0 0 4 4h10Z" fill="#deddda" stroke="#c0bfbc" stroke-width="2.5" stroke-linejoin="round"/><text x="13" y="43" font-family="'Times New Roman', 'Liberation Serif', Tinos, Times, serif" font-size="17" font-weight="700" fill="none" stroke="#000000" stroke-width="0.7" textLength="34" lengthAdjust="spacingAndGlyphs">W42</text><text x="13" y="43" font-family="'Times New Roman', 'Liberation Serif', Tinos, Times, serif" font-size="17" font-weight="700" fill="#1a5fb4" textLength="34" lengthAdjust="spacingAndGlyphs">W42</text><rect x="14" y="49" width="32" height="2.5" rx="1.25" fill="#c0bfbc"/><rect x="14" y="54.5" width="22" height="2.5" rx="1.25" fill="#c0bfbc"/>
  </g>

  <!-- The wordmark's face, from WORDMARK_FONT.  textLength pins the
       width, so the rule drawn under it fits whichever face answers.
       Two layers: a black-stroked copy underneath, the blue on top, so
       the black shows only as a thin rim round the letters. -->
  <text x="136" y="68" font-family="'Times New Roman', 'Liberation Serif', Tinos, Times, serif"
        font-size="48" font-weight="700" fill="none"
        stroke="#000000" stroke-width="2"
        textLength="198" lengthAdjust="spacingAndGlyphs">Word42</text>
  <text x="136" y="68" font-family="'Times New Roman', 'Liberation Serif', Tinos, Times, serif"
        font-size="48" font-weight="700" fill="#1a5fb4"
        textLength="198" lengthAdjust="spacingAndGlyphs">Word42</text>
  <rect x="136" y="75" width="198" height="3.5" rx="1.75" fill="#1a5fb4"/>
  <text x="137" y="97" font-family="'Times New Roman', 'Liberation Serif', Tinos, Times, serif"
        font-size="14" fill="#241f31">Version 1.0.0 &#183; word42.org</text>
</svg>
