<?xml version="1.0" encoding="UTF-8"?>
<!-- The About box banner.
     Generated by data/icons/make-icons.py.
     SPDX-License-Identifier: GPL-3.0-or-later -->
<svg xmlns="http://www.w3.org/2000/svg" width="420" height="128"
     viewBox="0 0 420 128">
  <defs>
    <linearGradient id="sky" x1="0" y1="0" x2="0" y2="1">
      <stop offset="0" stop-color="#f6f5f4"/>
      <stop offset="1" stop-color="#deddda"/>
    </linearGradient>
  </defs>
  <rect width="420" height="128" fill="url(#sky)"/>
  <rect x="0" y="127" width="420" height="1" fill="#c0bfbc"/>

  <g transform="translate(20,16) scale(1.5)">
    <path d="M9.5 8.5a4 4 0 0 1 4-4h23l14 14v33a4 4 0 0 1-4 4h-33a4 4 0 0 1-4-4Z" fill="#ffffff" stroke="#c0bfbc" stroke-width="2.5" stroke-linejoin="round"/><path d="M36.5 4.5v10a4 4 0 0 0 4 4h10Z" fill="#deddda" stroke="#c0bfbc" stroke-width="2.5" stroke-linejoin="round"/><path d="M13.5 27.5 17.5 42 21.5 32.5 25.5 42 29.5 27.5" fill="none" stroke="#1c71d8" stroke-width="3.4" stroke-linecap="round" stroke-linejoin="round"/><path d="M37 27.5 32.5 37.5H40M37.5 31V42" fill="none" stroke="#1c71d8" stroke-width="3.4" stroke-linecap="round" stroke-linejoin="round"/><path d="M42 30.5a3.3 3.3 0 0 1 6.6 1c0 3-6.6 4.6-6.6 10.5h7" fill="none" stroke="#1c71d8" stroke-width="3.4" stroke-linecap="round" stroke-linejoin="round"/><rect x="14" y="49" width="32" height="2.5" rx="1.25" fill="#c0bfbc"/><rect x="14" y="54.5" width="22" height="2.5" rx="1.25" fill="#c0bfbc"/>
  </g>

  <!-- The wordmark is a book face, as befits a word processor: Georgia
       and Palatino where the system has them, P052 (the free Palatino)
       where the banner is rasterised.  textLength pins the width, so
       the rule drawn under it fits whichever face answers. -->
  <text x="136" y="74" font-family="Georgia, 'Palatino Linotype', Palatino, P052, 'URW Palladio L', 'Liberation Serif', serif"
        font-size="44" font-weight="700" fill="#1c8cff"
        textLength="182" lengthAdjust="spacingAndGlyphs">Word42</text>
  <rect x="136" y="81" width="182" height="3.5" rx="1.75" fill="#1c8cff"/>
</svg>
